<mxfile host="app.diagrams.net" modified="2022-10-08T08:09:20.088Z" agent="5.0 (Windows NT 10.0; Win64; x64) AppleWebKit/537.36 (KHTML, like Gecko) Chrome/105.0.0.0 Safari/537.36" etag="c4Koazj_EcsY1Top6XRZ" version="20.4.0" type="github">
  <diagram id="aAjSRySb9h-JC3IUphO4" name="第 1 页">
    <mxGraphModel dx="1065" dy="456" grid="1" gridSize="10" guides="1" tooltips="1" connect="1" arrows="1" fold="1" page="1" pageScale="1" pageWidth="827" pageHeight="1169" math="0" shadow="0">
      <root>
        <mxCell id="0" />
        <mxCell id="1" parent="0" />
        <mxCell id="No_IRXzqZ5AaTTK7n_v8-4" value="" style="edgeStyle=orthogonalEdgeStyle;rounded=0;orthogonalLoop=1;jettySize=auto;html=1;" edge="1" parent="1" source="No_IRXzqZ5AaTTK7n_v8-2" target="No_IRXzqZ5AaTTK7n_v8-3">
          <mxGeometry relative="1" as="geometry" />
        </mxCell>
        <mxCell id="No_IRXzqZ5AaTTK7n_v8-2" value="ISAPI协议POST请求数据" style="rounded=1;whiteSpace=wrap;html=1;" vertex="1" parent="1">
          <mxGeometry x="150" y="190" width="120" height="60" as="geometry" />
        </mxCell>
        <mxCell id="No_IRXzqZ5AaTTK7n_v8-6" value="" style="edgeStyle=orthogonalEdgeStyle;rounded=0;orthogonalLoop=1;jettySize=auto;html=1;" edge="1" parent="1" source="No_IRXzqZ5AaTTK7n_v8-3" target="No_IRXzqZ5AaTTK7n_v8-5">
          <mxGeometry relative="1" as="geometry" />
        </mxCell>
        <mxCell id="No_IRXzqZ5AaTTK7n_v8-3" value="存储全部热图数据到文件" style="whiteSpace=wrap;html=1;rounded=1;" vertex="1" parent="1">
          <mxGeometry x="350" y="190" width="120" height="60" as="geometry" />
        </mxCell>
        <mxCell id="No_IRXzqZ5AaTTK7n_v8-8" value="" style="edgeStyle=orthogonalEdgeStyle;rounded=0;orthogonalLoop=1;jettySize=auto;html=1;" edge="1" parent="1" source="No_IRXzqZ5AaTTK7n_v8-5" target="No_IRXzqZ5AaTTK7n_v8-7">
          <mxGeometry relative="1" as="geometry" />
        </mxCell>
        <mxCell id="No_IRXzqZ5AaTTK7n_v8-5" value="解析DLT格式标准头位置" style="whiteSpace=wrap;html=1;rounded=1;" vertex="1" parent="1">
          <mxGeometry x="550" y="190" width="120" height="60" as="geometry" />
        </mxCell>
        <mxCell id="No_IRXzqZ5AaTTK7n_v8-10" style="edgeStyle=orthogonalEdgeStyle;rounded=0;orthogonalLoop=1;jettySize=auto;html=1;exitX=0;exitY=0.5;exitDx=0;exitDy=0;entryX=1;entryY=0.5;entryDx=0;entryDy=0;" edge="1" parent="1" source="No_IRXzqZ5AaTTK7n_v8-7" target="No_IRXzqZ5AaTTK7n_v8-9">
          <mxGeometry relative="1" as="geometry" />
        </mxCell>
        <mxCell id="No_IRXzqZ5AaTTK7n_v8-7" value="解析DLT格式内容长度" style="whiteSpace=wrap;html=1;rounded=1;" vertex="1" parent="1">
          <mxGeometry x="550" y="330" width="120" height="60" as="geometry" />
        </mxCell>
        <mxCell id="No_IRXzqZ5AaTTK7n_v8-9" value="依据内容长度保存图片" style="rounded=1;whiteSpace=wrap;html=1;" vertex="1" parent="1">
          <mxGeometry x="350" y="330" width="120" height="60" as="geometry" />
        </mxCell>
      </root>
    </mxGraphModel>
  </diagram>
</mxfile>
